<?xml version="1.0" encoding="UTF-8" standalone="no"?>
<!DOCTYPE svg PUBLIC "-//W3C//DTD SVG 1.1//EN" "http://www.w3.org/Graphics/SVG/1.1/DTD/svg11.dtd">
<svg version="1.1" xmlns="http://www.w3.org/2000/svg" xmlns:xlink="http://www.w3.org/1999/xlink" preserveAspectRatio="xMidYMid meet" viewBox="0 0 640 640" width="500" height="500"><defs><path d="M204.78 58.61C188.33 105.43 179.65 156.14 181.02 205.7C181.02 205.7 181.02 205.7 181.02 205.7C173.49 207.53 164.12 209.59 155.9 212.1C115.47 223.52 76.87 241.34 41.69 264.63C49.46 223.29 67.05 183.78 91.94 149.74C120.95 110.23 160.24 78.48 204.78 58.61Z" id="b9u4dUOOO"></path><linearGradient id="gradientb1K5ratkPF" gradientUnits="userSpaceOnUse" x1="83.01" y1="235.43" x2="179.94" y2="129.05"><stop style="stop-color: #6fc489;stop-opacity: 1" offset="0%"></stop><stop style="stop-color: #95cd73;stop-opacity: 1" offset="100%"></stop></linearGradient><path d="M563.61 170.3C589.64 213.47 604.26 263.49 604.95 313.97C605.18 332.7 603.58 351.66 600.38 370.16C600.38 370.13 600.38 369.95 600.38 369.93C599.24 367.64 597.87 365.82 596.5 363.76C573.66 332.47 546.25 304.38 515.41 280.85C513.58 279.25 513.81 279.48 511.99 278.11C517.01 269.43 523.18 261.21 527.97 252.3C542.82 226.49 554.7 198.85 563.61 170.53C563.61 170.48 563.61 170.32 563.61 170.3Z" id="am1oaD7Pk"></path><linearGradient id="gradientbR7rjVzB9" gradientUnits="userSpaceOnUse" x1="555.71" y1="302.93" x2="607.18" y2="238.59"><stop style="stop-color: #1e8489;stop-opacity: 1" offset="0%"></stop><stop style="stop-color: #2d9b9d;stop-opacity: 1" offset="100%"></stop></linearGradient><path d="M267.36 446.22C267.59 446.22 267.13 446.22 267.36 446.22C312.13 504 374.71 548.54 442.78 574.81C390.7 599.71 331.09 607.93 274.21 598.56C222.36 590.11 173.03 566.59 133.51 531.87C105.19 506.74 81.21 475.91 64.99 441.88C130.55 460.15 201.12 462.21 267.36 446.22Z" id="a1fTLn2TB4"></path><linearGradient id="gradientbTNd7BNoV" gradientUnits="userSpaceOnUse" x1="151.06" y1="485.62" x2="410.14" y2="567.97"><stop style="stop-color: #9ec965;stop-opacity: 1" offset="0%"></stop><stop style="stop-color: #5c9e6b;stop-opacity: 1" offset="100%"></stop></linearGradient><path d="M511.76 277.88C513.81 279.48 514.27 279.94 515.41 280.85C546.25 304.38 573.43 332.24 596.27 363.53C597.64 365.59 599.01 367.42 600.15 369.93C591.47 418.35 569.54 463.8 537.8 501.26C511.76 532.1 479.32 556.99 443.01 574.35C443.01 574.35 443.01 574.35 443.01 574.35C374.94 548.09 312.36 503.55 267.59 445.76C365.35 422.92 455.11 361.93 511.3 278.57C511.33 278.52 511.48 278.29 511.76 277.88" id="ijLRMa9To"></path><linearGradient id="gradienta3uQue2VQG" gradientUnits="userSpaceOnUse" x1="362.96" y1="517.25" x2="529.39" y2="335.38"><stop style="stop-color: #3c866e;stop-opacity: 1" offset="0%"></stop><stop style="stop-color: #055c67;stop-opacity: 1" offset="100%"></stop></linearGradient><path d="M184.45 205.02C183.76 205.25 182.62 205.48 181.25 205.7C181.25 205.98 181.25 208.17 181.25 208.44C183.31 276.74 202.49 343.21 237.67 402.13C246.58 417.44 256.85 431.83 267.59 446.22C201.35 462.21 131 460.38 65.45 442.11C65.43 442.11 65.24 442.11 65.22 442.11C38.95 387.52 30.5 324.48 42.15 265.09C77.33 241.79 115.93 223.98 156.36 212.56C165.26 209.82 173.26 208.22 181.48 205.93C181.48 205.93 181.48 205.93 181.48 205.93" id="a1OC38uWpv"></path><linearGradient id="gradientaB55EZ9an" gradientUnits="userSpaceOnUse" x1="88.75" y1="273.4" x2="228.59" y2="468.14"><stop style="stop-color: #b3d665;stop-opacity: 1" offset="0%"></stop><stop style="stop-color: #c8e18d;stop-opacity: 1" offset="100%"></stop></linearGradient><path d="" id="ahjOshftc"></path><path d="M181.25 205.7C179.88 156.14 188.79 105.43 205.01 58.61C272.39 28 352.1 25.72 421.31 52.21C480.24 74.37 531.17 116.4 563.83 170.3C554.93 198.85 542.82 226.49 527.97 252.3C523.18 260.98 516.78 269.43 511.99 278.11C511.99 278.11 453.28 225.58 340.45 203.42C257.54 186.97 181.25 205.7 181.25 205.7C181.25 205.7 181.25 205.7 181.25 205.7Z" id="bBGQ1rBnG"></path><linearGradient id="gradienta4mYUPT7un" gradientUnits="userSpaceOnUse" x1="181.02" y1="155.98" x2="563.67" y2="155.98"><stop style="stop-color: #89d2d1;stop-opacity: 1" offset="0%"></stop><stop style="stop-color: #3bb4b1;stop-opacity: 1" offset="100%"></stop></linearGradient></defs><g><g><g><g><use xlink:href="#b9u4dUOOO" opacity="1" fill="url(#gradientb1K5ratkPF)"></use><g><use xlink:href="#b9u4dUOOO" opacity="1" fill-opacity="0" stroke="#000000" stroke-width="1" stroke-opacity="0"></use></g></g><g><use xlink:href="#am1oaD7Pk" opacity="1" fill="url(#gradientbR7rjVzB9)"></use><g><use xlink:href="#am1oaD7Pk" opacity="1" fill-opacity="0" stroke="#000000" stroke-width="1" stroke-opacity="0"></use></g></g><g><use xlink:href="#a1fTLn2TB4" opacity="1" fill="url(#gradientbTNd7BNoV)"></use><g><use xlink:href="#a1fTLn2TB4" opacity="1" fill-opacity="0" stroke="#000000" stroke-width="1" stroke-opacity="0"></use></g></g><g><use xlink:href="#ijLRMa9To" opacity="1" fill="url(#gradienta3uQue2VQG)"></use><g><use xlink:href="#ijLRMa9To" opacity="1" fill-opacity="0" stroke="#000000" stroke-width="1" stroke-opacity="0"></use></g></g><g><use xlink:href="#a1OC38uWpv" opacity="1" fill="url(#gradientaB55EZ9an)"></use><g><use xlink:href="#a1OC38uWpv" opacity="1" fill-opacity="0" stroke="#000000" stroke-width="1" stroke-opacity="0"></use></g></g><g><use xlink:href="#ahjOshftc" opacity="1" fill="#c1de82" fill-opacity="1"></use><g><use xlink:href="#ahjOshftc" opacity="1" fill-opacity="0" stroke="#000000" stroke-width="1" stroke-opacity="0"></use></g></g><g><use xlink:href="#bBGQ1rBnG" opacity="1" fill="url(#gradienta4mYUPT7un)"></use><g><use xlink:href="#bBGQ1rBnG" opacity="1" fill-opacity="0" stroke="#000000" stroke-width="1" stroke-opacity="0"></use></g></g></g></g></g></svg>